<svg xmlns="http://www.w3.org/2000/svg" xmlns:xlink="http://www.w3.org/1999/xlink" width="451" zoomAndPan="magnify" viewBox="0 0 338.25 225.749993" height="301" preserveAspectRatio="xMidYMid meet" version="1.0"><defs><clipPath id="bd78282305"><path d="M 287 43 L 314.628906 43 L 314.628906 121 L 287 121 Z M 287 43 " clip-rule="nonzero"/></clipPath><clipPath id="ab3f2cad6c"><path d="M 103 82 L 314 82 L 314 225.375 L 103 225.375 Z M 103 82 " clip-rule="nonzero"/></clipPath><clipPath id="095e0543ba"><path d="M 171 120 L 178 120 L 178 225.375 L 171 225.375 Z M 171 120 " clip-rule="nonzero"/></clipPath><clipPath id="137849e7a0"><path d="M 199 85 L 215 85 L 215 225.375 L 199 225.375 Z M 199 85 " clip-rule="nonzero"/></clipPath><clipPath id="a3c020dffc"><path d="M 159 106 L 186 106 L 186 225.375 L 159 225.375 Z M 159 106 " clip-rule="nonzero"/></clipPath><clipPath id="f2fe50ba2c"><path d="M 159 85 L 215 85 L 215 225.375 L 159 225.375 Z M 159 85 " clip-rule="nonzero"/></clipPath></defs><path fill="#fcd6cb" d="M 289.375 105.570312 C 289.375 105.570312 290.675781 95.15625 289.894531 92.550781 C 289.113281 89.945312 288.332031 80.832031 288.851562 78.230469 C 289.375 75.625 289.375 71.71875 288.59375 67.8125 C 287.8125 63.90625 289.566406 57.484375 289.074219 52.855469 C 288.582031 48.226562 288.851562 44.636719 289.632812 44.113281 C 290.414062 43.59375 292.78125 44.183594 293.535156 48.800781 C 294.289062 53.417969 294.742188 66.25 296.480469 66.25 C 298.21875 66.25 298.300781 61.039062 300.476562 61.035156 C 302.652344 61.035156 303.761719 61.300781 304.28125 62.34375 C 304.800781 63.386719 305.761719 68.855469 305.761719 68.855469 C 305.761719 68.855469 307.320312 68.332031 308.621094 69.113281 C 309.921875 69.894531 309.921875 71.457031 309.921875 71.457031 C 309.921875 71.457031 311.484375 70.675781 312.785156 71.457031 C 314.085938 72.238281 313.5625 73.019531 313.042969 74.582031 C 312.523438 76.144531 310.964844 79.007812 310.703125 81.09375 C 310.441406 83.175781 309.402344 88.90625 306.539062 93.070312 C 303.679688 97.238281 305.5 106.351562 305.5 106.351562 L 308.363281 120.15625 L 287.894531 115.5625 Z M 289.375 105.570312 " fill-opacity="1" fill-rule="evenodd"/><g clip-path="url(#bd78282305)"><path fill="#1a0800" d="M 288.859375 105.507812 C 288.859375 105.480469 290.144531 95.199219 289.394531 92.699219 C 288.980469 91.304688 288.5625 88.121094 288.335938 85.027344 C 288.132812 82.195312 288.085938 79.417969 288.34375 78.125 C 288.605469 76.808594 288.734375 75.140625 288.6875 73.316406 C 288.644531 71.617188 288.453125 69.769531 288.082031 67.914062 C 287.660156 65.792969 287.953125 63.007812 288.25 60.15625 C 288.515625 57.632812 288.785156 55.054688 288.558594 52.910156 C 288.3125 50.59375 288.253906 48.53125 288.355469 46.972656 C 288.46875 45.234375 288.808594 44.039062 289.34375 43.679688 C 289.503906 43.574219 289.699219 43.496094 289.925781 43.460938 C 290.328125 43.398438 290.828125 43.464844 291.34375 43.738281 C 291.824219 43.992188 292.324219 44.421875 292.769531 45.09375 L 292.789062 45.121094 C 293.316406 45.929688 293.78125 47.089844 294.046875 48.71875 C 294.277344 50.117188 294.476562 52.265625 294.691406 54.585938 C 295.171875 59.71875 295.738281 65.730469 296.480469 65.730469 C 296.945312 65.726562 297.335938 64.730469 297.746094 63.675781 C 298.339844 62.144531 298.972656 60.519531 300.476562 60.519531 C 301.617188 60.515625 302.488281 60.589844 303.15625 60.804688 C 303.914062 61.046875 304.417969 61.457031 304.746094 62.113281 C 305.199219 63.015625 305.917969 66.816406 306.175781 68.230469 C 306.824219 68.125 307.914062 68.082031 308.886719 68.667969 C 309.828125 69.230469 310.199219 70.128906 310.347656 70.753906 C 311.007812 70.566406 312.078125 70.429688 313.050781 71.011719 C 314.542969 71.910156 314.25 72.734375 313.738281 74.175781 L 313.535156 74.746094 C 313.355469 75.285156 313.066406 75.957031 312.746094 76.691406 C 312.125 78.128906 311.382812 79.832031 311.21875 81.15625 C 311.058594 82.441406 310.605469 85.101562 309.617188 87.945312 C 308.980469 89.78125 308.117188 91.691406 306.96875 93.367188 C 304.234375 97.351562 306.003906 106.226562 306.011719 106.25 L 308.871094 120.050781 C 308.929688 120.328125 308.75 120.605469 308.46875 120.664062 C 308.382812 120.679688 308.300781 120.675781 308.222656 120.65625 L 287.785156 116.066406 C 287.515625 116.007812 287.34375 115.753906 287.382812 115.484375 Z M 290.390625 92.402344 C 291.203125 95.113281 289.894531 105.605469 289.890625 105.632812 L 288.480469 115.160156 L 307.691406 119.472656 L 304.992188 106.453125 C 304.984375 106.429688 303.128906 97.125 306.113281 92.777344 C 307.203125 91.191406 308.027344 89.359375 308.636719 87.601562 C 309.589844 84.855469 310.03125 82.277344 310.1875 81.03125 C 310.367188 79.566406 311.144531 77.785156 311.796875 76.28125 C 312.105469 75.566406 312.386719 74.914062 312.550781 74.421875 C 312.652344 74.117188 312.707031 73.96875 312.757812 73.824219 C 313.089844 72.894531 313.277344 72.359375 312.515625 71.902344 C 311.574219 71.335938 310.417969 71.800781 310.183594 71.90625 C 310.109375 71.953125 310.019531 71.980469 309.921875 71.980469 C 309.636719 71.980469 309.402344 71.746094 309.402344 71.457031 C 309.402344 71.453125 309.402344 70.1875 308.355469 69.558594 C 307.359375 68.964844 306.175781 69.269531 305.957031 69.335938 C 305.925781 69.347656 305.886719 69.359375 305.851562 69.367188 C 305.566406 69.414062 305.296875 69.226562 305.25 68.941406 C 305.246094 68.929688 304.300781 63.542969 303.820312 62.574219 C 303.625 62.191406 303.316406 61.945312 302.84375 61.792969 C 302.285156 61.613281 301.511719 61.554688 300.476562 61.558594 C 299.683594 61.558594 299.183594 62.839844 298.710938 64.050781 C 298.167969 65.449219 297.652344 66.769531 296.480469 66.769531 C 294.792969 66.769531 294.183594 60.246094 293.660156 54.675781 C 293.449219 52.386719 293.25 50.265625 293.023438 48.886719 C 292.785156 47.421875 292.378906 46.394531 291.921875 45.695312 L 291.90625 45.667969 C 291.5625 45.15625 291.199219 44.835938 290.863281 44.65625 C 290.5625 44.5 290.292969 44.453125 290.089844 44.488281 C 290.023438 44.5 289.964844 44.519531 289.921875 44.546875 C 289.667969 44.71875 289.480469 45.625 289.390625 47.035156 C 289.296875 48.542969 289.351562 50.546875 289.589844 52.800781 C 289.832031 55.054688 289.554688 57.6875 289.285156 60.261719 C 288.992188 63.03125 288.707031 65.734375 289.101562 67.710938 C 289.484375 69.613281 289.679688 71.519531 289.726562 73.289062 C 289.773438 75.203125 289.640625 76.945312 289.363281 78.332031 C 289.125 79.527344 289.175781 82.203125 289.375 84.957031 C 289.59375 87.980469 289.996094 91.074219 290.390625 92.402344 Z M 290.390625 92.402344 " fill-opacity="1" fill-rule="nonzero"/></g><path fill="#fcd68d" d="M 236.570312 95.414062 C 236.570312 95.414062 248.277344 101.144531 251.136719 105.050781 C 254 108.957031 284.171875 139.425781 285.730469 139.683594 C 285.730469 139.683594 288.332031 106.613281 289.375 105.570312 C 289.375 105.570312 293.015625 109.480469 299.777344 112.082031 C 306.539062 114.6875 307.0625 115.207031 307.0625 115.207031 C 307.0625 115.207031 305.5 108.695312 305.5 106.351562 C 305.5 106.351562 309.402344 109.21875 310.703125 112.863281 C 312.003906 116.507812 313.824219 127.445312 313.304688 127.445312 C 312.785156 127.445312 308.882812 126.144531 308.882812 126.144531 C 308.882812 126.144531 308.363281 164.164062 306.28125 169.113281 C 304.199219 174.058594 293.796875 173.800781 291.453125 172.496094 C 289.113281 171.195312 250.617188 151.925781 250.617188 151.925781 C 250.617188 151.925781 250.289062 195.414062 256.695312 224.839844 L 132.691406 224.839844 L 135.648438 210.257812 C 135.648438 210.257812 116.140625 215.726562 113.277344 214.164062 C 110.417969 212.601562 104.433594 203.488281 104.433594 203.488281 L 115.617188 204.527344 C 115.617188 204.527344 119.339844 199.070312 115.4375 193.601562 C 115.4375 193.601562 124.722656 188.382812 124.722656 185.777344 C 124.722656 183.175781 125.242188 130.308594 125.242188 130.308594 C 125.242188 130.308594 127.585938 106.875 147.351562 96.457031 C 167.121094 86.039062 217.324219 83.175781 217.324219 83.175781 Z M 236.570312 95.414062 " fill-opacity="1" fill-rule="evenodd"/><g clip-path="url(#ab3f2cad6c)"><path fill="#1a0800" d="M 236.839844 94.96875 C 237.585938 95.339844 248.714844 100.867188 251.554688 104.746094 C 253.046875 106.78125 262.136719 116.207031 270.625 124.703125 C 277.214844 131.300781 283.398438 137.320312 285.28125 138.816406 C 285.691406 133.675781 287.945312 106.269531 289.007812 105.207031 C 289.207031 105.003906 289.535156 105 289.738281 105.203125 L 289.773438 105.238281 C 290.082031 105.5625 293.609375 109.152344 299.964844 111.597656 C 303.453125 112.941406 305.3125 113.746094 306.300781 114.21875 C 305.851562 112.234375 304.980469 108.140625 304.980469 106.351562 C 304.980469 106.066406 305.214844 105.832031 305.5 105.832031 C 305.636719 105.832031 305.757812 105.882812 305.851562 105.96875 C 306.300781 106.308594 309.921875 109.128906 311.191406 112.6875 C 312.027344 115.027344 313.070312 120.3125 313.589844 123.867188 C 313.734375 124.882812 313.839844 125.757812 313.886719 126.390625 C 313.953125 127.285156 313.820312 127.851562 313.441406 127.949219 C 313.394531 127.960938 313.347656 127.96875 313.304688 127.964844 C 312.863281 127.96875 310.550781 127.234375 309.390625 126.855469 C 309.304688 132.078125 308.710938 164.671875 306.757812 169.3125 C 306.6875 169.484375 306.609375 169.644531 306.523438 169.800781 C 305.226562 172.136719 302.167969 173.265625 299.082031 173.65625 C 296.050781 174.039062 292.953125 173.710938 291.535156 173.113281 C 291.414062 173.058594 291.300781 173.007812 291.203125 172.953125 C 289.050781 171.753906 256.492188 155.445312 251.132812 152.761719 C 251.125 158.90625 251.320312 197.707031 257.203125 224.730469 C 257.265625 225.011719 257.085938 225.289062 256.804688 225.347656 C 256.769531 225.359375 256.730469 225.359375 256.695312 225.359375 L 132.691406 225.363281 C 132.40625 225.363281 132.171875 225.128906 132.171875 224.839844 C 132.171875 224.789062 132.179688 224.738281 132.195312 224.691406 L 134.972656 210.980469 C 131.226562 212 115.707031 216.082031 113.03125 214.621094 C 110.054688 212.996094 104.019531 203.796875 104 203.773438 C 103.84375 203.53125 103.910156 203.210938 104.148438 203.054688 C 104.25 202.988281 104.367188 202.960938 104.480469 202.96875 L 115.34375 203.980469 C 115.988281 202.878906 118.222656 198.398438 115.015625 193.902344 C 114.847656 193.667969 114.902344 193.34375 115.136719 193.179688 L 115.183594 193.148438 C 115.210938 193.132812 124.203125 188.078125 124.203125 185.777344 C 124.203125 183.304688 124.722656 130.457031 124.722656 130.304688 L 124.726562 130.253906 C 124.734375 130.1875 127.09375 106.542969 147.109375 95.996094 C 166.980469 85.527344 217.148438 82.664062 217.292969 82.65625 C 217.40625 82.652344 217.511719 82.679688 217.601562 82.738281 Z M 250.71875 105.359375 C 248.019531 101.675781 237.097656 96.253906 236.378906 95.898438 C 236.351562 95.886719 236.320312 95.871094 236.292969 95.855469 L 217.183594 83.707031 C 214.019531 83.894531 166.628906 86.886719 147.59375 96.917969 C 128.34375 107.0625 125.832031 129.664062 125.761719 130.347656 C 125.746094 131.6875 125.242188 183.074219 125.242188 185.777344 C 125.242188 188.292969 118.125 192.632812 116.179688 193.773438 C 119.761719 199.375 116.0625 204.800781 116.050781 204.816406 C 115.949219 204.96875 115.765625 205.0625 115.570312 205.046875 L 105.472656 204.105469 C 107.046875 206.425781 111.3125 212.496094 113.523438 213.707031 C 116.199219 215.167969 135.453125 209.773438 135.507812 209.757812 C 135.585938 209.734375 135.667969 209.730469 135.75 209.75 C 136.027344 209.804688 136.210938 210.078125 136.15625 210.359375 L 133.328125 224.320312 L 256.050781 224.320312 C 249.773438 194.859375 250.097656 152.046875 250.097656 151.921875 C 250.097656 151.84375 250.117188 151.765625 250.152344 151.691406 C 250.28125 151.4375 250.59375 151.332031 250.847656 151.460938 C 250.960938 151.515625 289.367188 170.742188 291.707031 172.042969 C 291.773438 172.082031 291.851562 172.117188 291.9375 172.15625 C 293.226562 172.695312 296.09375 172.988281 298.953125 172.625 C 301.757812 172.273438 304.511719 171.289062 305.617188 169.296875 C 305.683594 169.171875 305.746094 169.042969 305.804688 168.910156 C 307.84375 164.058594 308.363281 126.246094 308.363281 126.140625 C 308.367188 126.085938 308.375 126.035156 308.390625 125.980469 C 308.480469 125.710938 308.773438 125.5625 309.042969 125.652344 C 309.054688 125.65625 312.546875 126.820312 313.230469 126.917969 C 313.261719 126.863281 312.875 126.765625 312.851562 126.464844 C 312.808594 125.859375 312.703125 125.003906 312.558594 124.011719 C 312.050781 120.511719 311.027344 115.320312 310.210938 113.039062 C 309.351562 110.625 307.296875 108.5625 306.101562 107.515625 C 306.417969 110.300781 307.5625 115.066406 307.566406 115.082031 C 307.601562 115.238281 307.570312 115.40625 307.460938 115.539062 C 307.277344 115.757812 306.949219 115.789062 306.730469 115.605469 C 306.730469 115.605469 306.273438 115.136719 299.59375 112.566406 C 294.253906 110.511719 290.824219 107.648438 289.550781 106.46875 C 288.519531 110.832031 286.257812 139.636719 286.25 139.722656 L 286.246094 139.773438 C 286.199219 140.054688 285.929688 140.246094 285.644531 140.199219 C 284.792969 140.054688 277.5625 133.125 269.886719 125.441406 C 261.375 116.917969 252.246094 107.441406 250.71875 105.359375 Z M 250.71875 105.359375 " fill-opacity="1" fill-rule="nonzero"/></g><path fill="#1a0800" d="M 136.144531 210.410156 C 136.058594 210.6875 135.765625 210.839844 135.492188 210.753906 C 135.21875 210.667969 135.066406 210.375 135.152344 210.101562 C 135.171875 210.035156 142.410156 187.007812 142.152344 180.066406 C 141.890625 173.003906 142.933594 161.804688 142.933594 161.773438 C 142.960938 161.488281 143.214844 161.277344 143.5 161.304688 C 143.785156 161.332031 143.992188 161.585938 143.96875 161.871094 C 143.964844 161.902344 142.929688 173.03125 143.1875 180.03125 C 143.453125 187.152344 136.164062 210.347656 136.144531 210.410156 Z M 136.144531 210.410156 " fill-opacity="1" fill-rule="nonzero"/><path fill="#d78587" d="M 236.570312 95.414062 C 236.570312 95.414062 231.890625 92.292969 232.148438 85.257812 C 232.410156 78.230469 227.988281 74.324219 226.6875 63.386719 C 225.386719 52.449219 218.882812 14.949219 201.457031 8.960938 C 201.457031 8.960938 184.808594 0.367188 167.640625 17.550781 C 150.472656 34.738281 153.074219 75.625 147.09375 81.351562 C 141.109375 87.082031 137.46875 88.644531 135.128906 101.144531 C 132.785156 113.644531 125.242188 106.875 125.242188 130.308594 C 125.242188 130.308594 128.808594 112.300781 141.371094 111.039062 C 141.371094 111.039062 133.710938 124.382812 138.265625 136.550781 C 142.816406 148.722656 143.710938 158.433594 143.710938 158.433594 C 143.710938 158.433594 154.894531 138.382812 152.816406 120.675781 C 150.734375 102.96875 173.105469 110.261719 174.402344 79.269531 L 204.578125 80.3125 C 204.578125 80.3125 205.097656 85.519531 211.859375 87.082031 C 218.621094 88.644531 213.679688 93.59375 224.867188 95.414062 C 236.050781 97.238281 236.570312 95.414062 236.570312 95.414062 Z M 236.570312 95.414062 " fill-opacity="1" fill-rule="evenodd"/><path fill="#1a0800" d="M 235.792969 95.464844 C 234.558594 94.414062 231.414062 91.144531 231.632812 85.242188 C 231.757812 81.808594 230.722656 79.109375 229.5 75.921875 C 228.257812 72.679688 226.824219 68.941406 226.171875 63.445312 C 225.367188 56.675781 222.558594 39.683594 216.386719 26.371094 C 212.664062 18.34375 207.726562 11.664062 201.285156 9.449219 C 201.253906 9.441406 201.222656 9.425781 201.195312 9.410156 C 200.4375 9.03125 184.527344 1.382812 168.007812 17.921875 C 157.351562 28.589844 154.378906 48.628906 152.179688 63.464844 C 150.855469 72.394531 149.804688 79.46875 147.449219 81.726562 C 146.527344 82.609375 145.742188 83.324219 145 84 C 140.515625 88.074219 137.609375 90.714844 135.636719 101.242188 C 134.6875 106.300781 132.914062 108.292969 131.109375 110.3125 C 128.746094 112.957031 126.332031 115.664062 125.851562 126.25 C 127.722656 120.769531 132.214844 111.4375 141.320312 110.523438 C 141.601562 110.496094 141.859375 110.703125 141.886719 110.988281 C 141.898438 111.097656 141.871094 111.207031 141.824219 111.292969 C 141.800781 111.332031 134.285156 124.429688 138.75 136.371094 C 142.207031 145.609375 143.5625 153.429688 144.023438 156.722656 C 146.5 151.820312 154.027344 135.464844 152.300781 120.734375 C 151.339844 112.5625 155.359375 109.550781 160.234375 105.902344 C 166.066406 101.53125 173.175781 96.207031 173.886719 79.25 C 173.898438 78.964844 174.140625 78.742188 174.425781 78.75 L 204.59375 79.792969 C 204.851562 79.800781 205.0625 80 205.09375 80.25 C 205.09375 80.261719 205.574219 85.097656 211.976562 86.578125 C 215.121094 87.300781 215.914062 88.707031 216.765625 90.226562 C 217.753906 91.980469 218.84375 93.910156 224.949219 94.902344 C 232.769531 96.175781 235.101562 95.78125 235.792969 95.464844 Z M 232.667969 85.277344 C 232.421875 91.878906 236.667969 94.851562 236.855469 94.980469 C 237.050781 95.109375 237.140625 95.359375 237.058594 95.589844 C 237.058594 95.59375 236.398438 97.820312 224.78125 95.929688 C 218.1875 94.855469 216.96875 92.695312 215.867188 90.734375 C 215.128906 89.425781 214.445312 88.210938 211.746094 87.589844 C 205.828125 86.222656 204.441406 82.164062 204.140625 80.816406 L 174.898438 79.808594 C 174.042969 96.851562 166.804688 102.273438 160.855469 106.730469 C 156.242188 110.1875 152.441406 113.035156 153.332031 120.617188 C 155.429688 138.488281 144.199219 158.628906 144.167969 158.6875 C 144.085938 158.832031 143.9375 158.9375 143.761719 158.953125 C 143.476562 158.980469 143.222656 158.769531 143.195312 158.484375 C 143.191406 158.457031 142.304688 148.839844 137.777344 136.730469 C 133.851562 126.226562 138.816406 114.929688 140.4375 111.695312 C 129.351562 113.683594 125.9375 129.511719 125.757812 130.375 C 125.726562 130.632812 125.507812 130.832031 125.242188 130.832031 C 124.957031 130.832031 124.722656 130.597656 124.722656 130.308594 C 124.722656 115.902344 127.5625 112.722656 130.335938 109.621094 C 132.042969 107.710938 133.722656 105.828125 134.617188 101.050781 C 136.652344 90.179688 139.660156 87.445312 144.300781 83.230469 C 145.089844 82.511719 145.929688 81.746094 146.734375 80.980469 C 148.832031 78.972656 149.855469 72.050781 151.152344 63.3125 C 153.371094 48.332031 156.371094 28.097656 167.273438 17.183594 C 184.3125 0.128906 200.863281 8.082031 201.652344 8.476562 C 208.390625 10.808594 213.507812 17.683594 217.332031 25.9375 C 223.5625 39.375 226.390625 56.5 227.203125 63.324219 C 227.84375 68.707031 229.246094 72.371094 230.464844 75.550781 C 231.730469 78.847656 232.800781 81.640625 232.667969 85.277344 Z M 232.667969 85.277344 " fill-opacity="1" fill-rule="nonzero"/><path fill="#fcd6cb" d="M 205.796875 71.359375 C 205.796875 71.359375 202.300781 82.703125 208.972656 86.039062 C 208.972656 86.039062 211.859375 98.539062 189.75 100.625 C 189.75 100.625 179.113281 101.011719 168.4375 98.996094 C 168.4375 98.996094 175.683594 89.097656 174.394531 72.59375 Z M 205.796875 71.359375 " fill-opacity="1" fill-rule="evenodd"/><path fill="#1a0800" d="M 206.296875 71.507812 C 206.289062 71.539062 202.929688 82.4375 209.203125 85.574219 C 209.355469 85.648438 209.457031 85.789062 209.484375 85.945312 C 209.589844 86.4375 212.082031 99.039062 189.796875 101.140625 L 189.765625 101.140625 C 189.734375 101.144531 179.074219 101.53125 168.339844 99.503906 C 168.058594 99.453125 167.875 99.179688 167.925781 98.898438 C 167.941406 98.820312 167.972656 98.75 168.015625 98.6875 C 168.035156 98.660156 175.148438 88.945312 173.875 72.632812 C 173.855469 72.347656 174.070312 72.097656 174.355469 72.078125 L 205.777344 70.839844 C 206.0625 70.828125 206.304688 71.050781 206.316406 71.335938 C 206.316406 71.394531 206.3125 71.453125 206.296875 71.507812 Z M 208.503906 86.378906 C 202.75 83.246094 204.472656 74.445312 205.109375 71.90625 L 174.949219 73.09375 C 175.890625 86.988281 170.859375 96.152344 169.304688 98.625 C 179.4375 100.429688 189.277344 100.121094 189.71875 100.105469 C 209.472656 98.238281 208.757812 88.050781 208.503906 86.378906 Z M 208.503906 86.378906 " fill-opacity="1" fill-rule="nonzero"/><g clip-path="url(#095e0543ba)"><path fill="#1a0800" d="M 171.082031 120.804688 C 171.066406 120.519531 171.289062 120.277344 171.574219 120.261719 C 171.859375 120.246094 172.101562 120.46875 172.117188 120.753906 L 177.433594 224.8125 C 177.449219 225.101562 177.226562 225.34375 176.941406 225.359375 C 176.65625 225.375 176.410156 225.152344 176.398438 224.867188 Z M 171.082031 120.804688 " fill-opacity="1" fill-rule="nonzero"/></g><path fill="#e4e8eb" d="M 110.066406 193.511719 L 177.265625 194.632812 C 177.265625 194.632812 178.566406 194.371094 178.566406 193.332031 C 178.566406 192.289062 178.304688 192.027344 176.484375 191.769531 C 174.664062 191.507812 118.480469 185.257812 118.480469 185.257812 C 118.480469 185.257812 117.960938 185.257812 115.097656 185.257812 C 112.238281 185.257812 101.574219 185.519531 101.574219 185.519531 Z M 110.066406 193.511719 " fill-opacity="1" fill-rule="evenodd"/><path fill="#1a0800" d="M 110.277344 192.996094 L 177.203125 194.113281 C 177.40625 194.058594 178.046875 193.84375 178.046875 193.332031 C 178.046875 192.976562 178.015625 192.765625 177.890625 192.667969 C 177.679688 192.503906 177.226562 192.398438 176.410156 192.28125 C 174.617188 192.027344 119.996094 185.949219 118.460938 185.777344 L 115.097656 185.777344 C 112.433594 185.777344 105.667969 185.9375 102.847656 186.007812 Z M 177.257812 195.152344 L 110.082031 194.03125 C 109.953125 194.035156 109.816406 193.988281 109.714844 193.890625 L 101.214844 185.898438 C 101.121094 185.804688 101.058594 185.671875 101.054688 185.527344 C 101.050781 185.242188 101.277344 185.003906 101.5625 185 C 101.59375 185 112.777344 184.738281 115.097656 184.738281 L 118.480469 184.738281 L 118.539062 184.742188 C 118.699219 184.757812 174.738281 190.992188 176.558594 191.253906 C 177.5625 191.398438 178.152344 191.554688 178.527344 191.847656 C 178.984375 192.203125 179.085938 192.644531 179.085938 193.332031 C 179.085938 194.804688 177.394531 195.136719 177.390625 195.136719 C 177.347656 195.148438 177.304688 195.152344 177.257812 195.152344 Z M 177.257812 195.152344 " fill-opacity="1" fill-rule="nonzero"/><path fill="#fcd6cb" d="M 197.898438 25.101562 C 194.300781 22.007812 183.59375 21.976562 180.992188 29.527344 C 178.390625 37.082031 173.582031 45.699219 169.289062 53.226562 C 164.992188 60.753906 175.527344 82.683594 188.878906 83.171875 C 202.230469 83.664062 212.289062 64.945312 212.207031 50.621094 C 212.207031 50.621094 207.785156 44.113281 207.265625 37.082031 C 206.746094 30.050781 204.921875 23.800781 197.898438 25.101562 Z M 197.898438 25.101562 " fill-opacity="1" fill-rule="evenodd"/><path fill="#1a0800" d="M 197.5625 25.496094 C 197.003906 25.015625 196.246094 24.613281 195.359375 24.304688 C 193.53125 23.675781 191.191406 23.472656 188.925781 23.875 C 186.675781 24.273438 184.511719 25.265625 183.007812 27.019531 C 182.367188 27.765625 181.84375 28.652344 181.484375 29.699219 C 180.179688 33.492188 178.316406 37.558594 176.238281 41.625 C 174.160156 45.6875 171.882812 49.722656 169.738281 53.484375 C 169.183594 54.457031 168.894531 55.707031 168.839844 57.132812 C 168.710938 60.761719 170.101562 65.496094 172.535156 69.910156 C 174.972656 74.324219 178.449219 78.398438 182.484375 80.707031 C 184.503906 81.863281 186.664062 82.574219 188.894531 82.65625 C 189.09375 82.660156 189.285156 82.664062 189.46875 82.664062 C 195.597656 82.628906 201.003906 78.394531 204.949219 72.464844 C 208.933594 66.480469 211.417969 58.789062 211.667969 51.929688 C 211.679688 51.539062 211.6875 51.15625 211.6875 50.777344 C 211.0625 49.816406 207.234375 43.707031 206.746094 37.117188 C 206.492188 33.675781 205.925781 30.433594 204.578125 28.238281 L 204.5625 28.214844 C 203.277344 26.136719 201.238281 25.011719 197.992188 25.613281 C 197.835938 25.640625 197.679688 25.59375 197.5625 25.496094 Z M 195.699219 23.320312 C 196.609375 23.636719 197.410156 24.050781 198.046875 24.550781 C 201.65625 23.953125 203.964844 25.273438 205.445312 27.664062 L 205.464844 27.695312 C 206.914062 30.054688 207.515625 33.457031 207.78125 37.042969 C 208.292969 43.9375 212.625 50.316406 212.636719 50.332031 C 212.691406 50.414062 212.726562 50.515625 212.726562 50.621094 C 212.726562 51.070312 212.71875 51.519531 212.703125 51.964844 C 212.445312 59.011719 209.898438 66.902344 205.8125 73.039062 C 201.691406 79.234375 195.992188 83.664062 189.472656 83.703125 C 189.265625 83.703125 189.058594 83.699219 188.859375 83.691406 C 186.445312 83.605469 184.125 82.84375 181.964844 81.609375 C 177.757812 79.203125 174.148438 74.976562 171.625 70.410156 C 169.105469 65.84375 167.667969 60.910156 167.804688 57.09375 C 167.863281 55.5 168.195312 54.089844 168.835938 52.96875 C 170.984375 49.203125 173.261719 45.164062 175.3125 41.152344 C 177.363281 37.136719 179.207031 33.117188 180.5 29.359375 C 180.90625 28.1875 181.496094 27.1875 182.21875 26.34375 C 183.894531 24.386719 186.28125 23.285156 188.746094 22.851562 C 191.1875 22.417969 193.714844 22.636719 195.699219 23.320312 Z M 195.699219 23.320312 " fill-opacity="1" fill-rule="nonzero"/><path fill="#e4e8eb" d="M 111.976562 191.769531 L 95.589844 113.125 C 95.589844 113.125 95.328125 110.257812 90.128906 110 C 84.925781 109.738281 24.058594 105.050781 24.058594 105.050781 C 24.058594 105.050781 21.199219 105.3125 22.238281 109.738281 C 23.277344 114.164062 38.363281 179.789062 38.363281 179.789062 C 38.363281 179.789062 38.886719 183.695312 42.527344 184.214844 C 46.167969 184.738281 109.117188 193.589844 109.117188 193.589844 C 109.117188 193.589844 111.195312 193.851562 111.976562 191.769531 Z M 111.976562 191.769531 " fill-opacity="1" fill-rule="evenodd"/><path fill="#1a0800" d="M 111.4375 191.722656 L 95.074219 113.179688 C 95.074219 113.175781 94.855469 110.753906 90.105469 110.515625 C 84.949219 110.261719 26.058594 105.726562 24.070312 105.574219 C 23.761719 105.625 21.914062 106.085938 22.746094 109.621094 C 23.703125 113.699219 38.828125 179.484375 38.871094 179.671875 L 38.878906 179.71875 C 38.882812 179.726562 39.347656 183.238281 42.601562 183.699219 C 46.214844 184.21875 109.007812 193.050781 109.1875 193.074219 L 109.191406 193.078125 C 109.390625 193.09375 110.8125 193.164062 111.4375 191.722656 Z M 96.101562 113.042969 L 112.484375 191.660156 C 112.503906 191.753906 112.496094 191.855469 112.460938 191.949219 C 111.585938 194.285156 109.328125 194.132812 109.085938 194.109375 L 109.046875 194.105469 C 108.863281 194.082031 46.121094 185.253906 42.453125 184.730469 C 38.589844 184.175781 37.90625 180.21875 37.855469 179.882812 C 37.636719 178.933594 22.847656 114.601562 21.730469 109.855469 C 20.613281 105.101562 23.660156 104.578125 23.976562 104.535156 C 24.015625 104.53125 24.058594 104.527344 24.097656 104.53125 C 24.273438 104.546875 84.984375 109.222656 90.152344 109.480469 C 95.523438 109.75 96.0625 112.738281 96.101562 113.042969 Z M 96.101562 113.042969 " fill-opacity="1" fill-rule="nonzero"/><path fill="#1a0800" d="M 111.808594 191.503906 C 111.523438 191.5 111.292969 191.265625 111.296875 190.980469 C 111.300781 190.691406 111.535156 190.464844 111.820312 190.464844 L 177.585938 191.457031 C 177.871094 191.460938 178.101562 191.695312 178.097656 191.984375 C 178.09375 192.269531 177.859375 192.5 177.574219 192.496094 Z M 111.808594 191.503906 " fill-opacity="1" fill-rule="nonzero"/><path fill="#fcd6cb" d="M 104.433594 203.488281 C 104.433594 203.488281 94.371094 198.277344 92.289062 198.800781 C 90.210938 199.320312 81.722656 197.867188 81.105469 197.496094 C 79.285156 196.714844 78.320312 196.101562 78.320312 196.101562 C 78.320312 196.101562 75.300781 195.933594 74.78125 195.675781 C 74.261719 195.414062 71.660156 193.589844 71.660156 193.589844 C 71.660156 193.589844 64.980469 190.988281 64.457031 190.203125 C 63.9375 189.425781 65.515625 187.457031 67.660156 187.757812 C 69.808594 188.058594 70.359375 187.863281 70.359375 187.863281 C 70.359375 187.863281 69.757812 181.089844 72.441406 181.089844 C 75.125 181.089844 74.601562 184.738281 74.601562 184.738281 C 74.601562 184.738281 76.683594 182.914062 77.984375 184.214844 C 79.285156 185.519531 79.140625 187.730469 80.164062 189.316406 C 80.164062 189.316406 80.585938 187.183594 82.875 187.503906 C 83.949219 187.652344 83.957031 188.535156 85.375 189.6875 C 85.820312 190.054688 86.300781 190.410156 86.828125 190.726562 C 87.996094 191.421875 100.792969 192.59375 103.207031 192.757812 L 115.4375 193.601562 C 117.992188 197.519531 117.8125 201.246094 115.523438 204.820312 Z M 104.433594 203.488281 " fill-opacity="1" fill-rule="evenodd"/><path fill="#1a0800" d="M 104.195312 203.949219 C 104.164062 203.933594 94.308594 198.828125 92.417969 199.304688 C 91.511719 199.53125 89.566406 199.421875 87.53125 199.183594 C 84.652344 198.847656 81.511719 198.238281 80.902344 197.972656 C 79.421875 197.339844 78.484375 196.808594 78.160156 196.613281 C 77.578125 196.578125 75.117188 196.421875 74.550781 196.136719 C 74.046875 195.886719 71.800781 194.320312 71.417969 194.054688 C 70.769531 193.800781 64.609375 191.363281 64.027344 190.492188 C 63.863281 190.25 63.808594 189.957031 63.855469 189.644531 C 63.898438 189.328125 64.050781 188.988281 64.285156 188.664062 C 64.503906 188.367188 64.804688 188.074219 65.164062 187.835938 L 65.191406 187.820312 C 65.859375 187.378906 66.746094 187.105469 67.734375 187.242188 C 68.847656 187.398438 69.472656 187.425781 69.808594 187.417969 C 69.730469 185.78125 69.6875 180.570312 72.441406 180.570312 C 74.640625 180.570312 75.09375 182.476562 75.15625 183.734375 C 76.011719 183.257812 77.332031 182.828125 78.351562 183.847656 C 79.171875 184.667969 79.464844 185.746094 79.765625 186.839844 C 79.882812 187.269531 80 187.699219 80.148438 188.105469 C 80.605469 187.445312 81.445312 186.777344 82.945312 186.988281 C 83.773438 187.105469 84.09375 187.503906 84.558594 188.089844 C 84.824219 188.425781 85.152344 188.839844 85.699219 189.285156 C 85.917969 189.464844 86.144531 189.640625 86.371094 189.804688 C 86.601562 189.96875 86.839844 190.128906 87.09375 190.28125 C 87.460938 190.5 89.46875 190.808594 91.964844 191.117188 C 96.207031 191.644531 101.742188 192.136719 103.242188 192.242188 L 115.472656 193.082031 C 115.640625 193.09375 115.785156 193.1875 115.871094 193.320312 C 117.207031 195.363281 117.828125 197.371094 117.816406 199.339844 C 117.804688 201.3125 117.15625 203.230469 115.957031 205.101562 C 115.847656 205.273438 115.652344 205.359375 115.460938 205.335938 L 104.371094 204.003906 C 104.308594 203.996094 104.246094 203.976562 104.195312 203.949219 Z M 92.164062 198.292969 C 94.316406 197.757812 103.613281 202.480469 104.589844 202.980469 L 115.257812 204.261719 C 116.242188 202.644531 116.769531 201.003906 116.78125 199.335938 C 116.789062 197.640625 116.265625 195.898438 115.140625 194.101562 L 103.171875 193.28125 C 101.660156 193.175781 96.085938 192.675781 91.839844 192.152344 C 89.222656 191.828125 87.070312 191.476562 86.5625 191.171875 C 86.289062 191.007812 86.023438 190.832031 85.769531 190.648438 C 85.511719 190.464844 85.273438 190.277344 85.046875 190.09375 C 84.40625 189.570312 84.042969 189.109375 83.746094 188.738281 C 83.433594 188.34375 83.21875 188.074219 82.804688 188.019531 C 81 187.765625 80.675781 189.410156 80.675781 189.414062 C 80.648438 189.546875 80.570312 189.671875 80.449219 189.75 C 80.207031 189.90625 79.886719 189.835938 79.730469 189.597656 C 79.234375 188.832031 78.996094 187.964844 78.765625 187.113281 C 78.503906 186.15625 78.246094 185.214844 77.617188 184.585938 C 76.714844 183.683594 75.132812 184.96875 74.957031 185.117188 C 74.84375 185.222656 74.6875 185.273438 74.527344 185.253906 C 74.246094 185.210938 74.046875 184.945312 74.089844 184.660156 C 74.089844 184.652344 74.523438 181.613281 72.441406 181.613281 C 70.335938 181.613281 70.875 187.804688 70.878906 187.820312 C 70.894531 188.042969 70.765625 188.257812 70.550781 188.34375 C 70.550781 188.34375 69.871094 188.59375 67.589844 188.273438 C 66.878906 188.171875 66.242188 188.371094 65.761719 188.6875 L 65.738281 188.699219 C 65.480469 188.871094 65.273438 189.074219 65.121094 189.28125 C 64.988281 189.464844 64.902344 189.640625 64.882812 189.789062 C 64.875 189.847656 64.875 189.894531 64.890625 189.917969 C 65.320312 190.566406 71.828125 193.101562 71.847656 193.105469 C 71.886719 193.125 71.921875 193.140625 71.957031 193.167969 C 71.964844 193.171875 74.519531 194.964844 75.011719 195.210938 C 75.386719 195.398438 78.011719 195.5625 78.324219 195.582031 C 78.425781 195.582031 78.523438 195.609375 78.609375 195.667969 C 78.609375 195.667969 79.535156 196.257812 81.308594 197.019531 L 81.371094 197.050781 C 81.699219 197.246094 84.765625 197.816406 87.648438 198.152344 C 89.582031 198.375 91.394531 198.488281 92.164062 198.292969 Z M 92.164062 198.292969 " fill-opacity="1" fill-rule="nonzero"/><path fill="#1a0800" d="M 115.101562 204.519531 C 115.105469 204.234375 115.339844 204.003906 115.625 204.007812 C 115.914062 204.015625 116.140625 204.25 116.136719 204.535156 C 116.136719 204.554688 116.136719 211.0625 109.875 210.777344 C 109.589844 210.765625 109.367188 210.519531 109.378906 210.234375 C 109.390625 209.949219 109.632812 209.726562 109.917969 209.738281 C 115.097656 209.972656 115.101562 204.535156 115.101562 204.519531 Z M 115.101562 204.519531 " fill-opacity="1" fill-rule="nonzero"/><path fill="#1a0800" d="M 69.839844 187.902344 C 69.820312 187.617188 70.03125 187.363281 70.316406 187.34375 C 70.605469 187.320312 70.855469 187.535156 70.878906 187.820312 C 70.878906 187.832031 71.132812 191.621094 72.113281 193.335938 C 72.253906 193.582031 72.164062 193.902344 71.914062 194.042969 C 71.667969 194.183594 71.347656 194.097656 71.207031 193.847656 C 70.105469 191.917969 69.84375 187.914062 69.839844 187.902344 Z M 69.839844 187.902344 " fill-opacity="1" fill-rule="nonzero"/><path fill="#1a0800" d="M 74.085938 184.863281 C 74.070312 184.578125 74.292969 184.335938 74.582031 184.324219 C 74.867188 184.3125 75.109375 184.535156 75.121094 184.820312 C 75.121094 184.84375 75.5 193.6875 79.851562 195.996094 C 80.105469 196.128906 80.203125 196.445312 80.070312 196.699219 C 79.9375 196.953125 79.621094 197.046875 79.367188 196.914062 C 74.488281 194.324219 74.085938 184.890625 74.085938 184.863281 Z M 74.085938 184.863281 " fill-opacity="1" fill-rule="nonzero"/><path fill="#1a0800" d="M 250.359375 131.859375 C 250.363281 131.574219 250.601562 131.347656 250.890625 131.355469 C 251.175781 131.359375 251.402344 131.597656 251.394531 131.886719 C 251.394531 131.925781 251.097656 145.472656 251.136719 151.921875 C 251.136719 152.210938 250.90625 152.441406 250.621094 152.445312 C 250.332031 152.445312 250.097656 152.214844 250.097656 151.925781 C 250.0625 145.457031 250.359375 131.898438 250.359375 131.859375 Z M 250.359375 131.859375 " fill-opacity="1" fill-rule="nonzero"/><path fill="#1a0800" d="M 285.214844 139.660156 C 285.226562 139.375 285.46875 139.152344 285.757812 139.167969 C 286.042969 139.179688 286.261719 139.425781 286.25 139.710938 C 286.25 139.753906 285.476562 154.722656 288.042969 162.441406 C 288.132812 162.710938 287.988281 163.003906 287.714844 163.09375 C 287.445312 163.183594 287.152344 163.035156 287.0625 162.765625 C 284.429688 154.859375 285.210938 139.707031 285.214844 139.660156 Z M 285.214844 139.660156 " fill-opacity="1" fill-rule="nonzero"/><path fill="#1a0800" d="M 294.667969 79.390625 C 294.457031 79.585938 294.128906 79.574219 293.933594 79.359375 C 293.738281 79.148438 293.753906 78.820312 293.964844 78.628906 C 293.992188 78.601562 304.046875 69.332031 305.601562 69.644531 L 305.65625 69.660156 C 305.886719 69.714844 306.109375 69.820312 306.3125 69.972656 C 306.769531 70.320312 307.15625 70.90625 307.375 71.609375 C 307.589844 72.289062 307.65625 73.085938 307.496094 73.886719 C 307.375 74.496094 307.117188 75.109375 306.695312 75.675781 C 305.121094 77.777344 300.453125 83.488281 300.441406 83.503906 C 300.261719 83.726562 299.933594 83.761719 299.710938 83.578125 C 299.488281 83.398438 299.457031 83.070312 299.636719 82.847656 C 299.648438 82.832031 304.320312 77.117188 305.867188 75.050781 C 306.1875 74.625 306.382812 74.152344 306.476562 73.683594 C 306.601562 73.0625 306.546875 72.441406 306.382812 71.917969 C 306.226562 71.421875 305.976562 71.019531 305.691406 70.804688 C 305.601562 70.742188 305.515625 70.691406 305.429688 70.671875 L 305.398438 70.667969 C 304.351562 70.457031 294.695312 79.367188 294.667969 79.390625 Z M 294.667969 79.390625 " fill-opacity="1" fill-rule="nonzero"/><path fill="#1a0800" d="M 299 65.738281 C 298.996094 65.449219 299.222656 65.214844 299.511719 65.210938 C 299.796875 65.207031 300.03125 65.433594 300.035156 65.71875 C 300.035156 65.738281 300.117188 72.074219 300.207031 74.238281 C 300.21875 74.523438 299.996094 74.765625 299.707031 74.777344 C 299.421875 74.789062 299.179688 74.566406 299.167969 74.277344 C 299.082031 72.144531 299 65.753906 299 65.738281 Z M 299 65.738281 " fill-opacity="1" fill-rule="nonzero"/><path fill="#1a0800" d="M 309.433594 71.277344 C 309.535156 71.007812 309.832031 70.871094 310.101562 70.96875 C 310.371094 71.066406 310.507812 71.367188 310.410156 71.636719 C 310.40625 71.652344 308.585938 76.589844 307.800781 78.433594 C 307.410156 79.34375 306.476562 80.730469 305.554688 81.925781 C 304.480469 83.316406 303.332031 84.476562 302.898438 84.476562 C 302.734375 84.476562 302.511719 84.429688 302.277344 84.335938 C 301.953125 84.203125 301.582031 83.964844 301.285156 83.628906 C 300.976562 83.273438 300.753906 82.808594 300.753906 82.230469 C 300.753906 81.933594 300.816406 81.609375 300.957031 81.257812 C 301.066406 80.996094 301.371094 80.867188 301.636719 80.976562 C 301.898438 81.085938 302.027344 81.390625 301.917969 81.65625 C 301.832031 81.867188 301.792969 82.058594 301.792969 82.230469 C 301.792969 82.523438 301.910156 82.761719 302.070312 82.945312 C 302.246094 83.152344 302.472656 83.292969 302.671875 83.375 C 302.773438 83.414062 302.851562 83.4375 302.898438 83.4375 C 303.011719 83.4375 303.832031 82.460938 304.734375 81.289062 C 305.613281 80.152344 306.488281 78.851562 306.84375 78.023438 C 307.617188 76.222656 309.429688 71.292969 309.433594 71.277344 Z M 309.433594 71.277344 " fill-opacity="1" fill-rule="nonzero"/><path fill="#1a0800" d="M 303.90625 82.652344 C 303.835938 82.375 304 82.09375 304.277344 82.023438 C 304.554688 81.949219 304.839844 82.117188 304.910156 82.394531 C 304.910156 82.398438 305.382812 84.425781 307 84.222656 C 308.757812 84.003906 311.507812 76.25 311.515625 76.230469 C 311.613281 75.960938 311.910156 75.820312 312.179688 75.917969 C 312.449219 76.011719 312.589844 76.3125 312.492188 76.582031 C 312.484375 76.605469 309.527344 84.953125 307.125 85.253906 C 304.578125 85.574219 303.90625 82.664062 303.90625 82.652344 Z M 303.90625 82.652344 " fill-opacity="1" fill-rule="nonzero"/><path fill="#1a0800" d="M 305.25 68.75 C 305.308594 68.46875 305.582031 68.285156 305.863281 68.34375 C 306.144531 68.398438 306.328125 68.671875 306.269531 68.957031 L 306.011719 70.257812 C 305.953125 70.539062 305.679688 70.722656 305.398438 70.667969 C 305.117188 70.609375 304.933594 70.335938 304.992188 70.054688 Z M 305.25 68.75 " fill-opacity="1" fill-rule="nonzero"/><path fill="#1a0800" d="M 302.652344 86.191406 C 302.714844 85.910156 302.992188 85.734375 303.269531 85.796875 C 303.550781 85.855469 303.726562 86.132812 303.664062 86.414062 C 303.660156 86.433594 302.078125 93.964844 296.015625 95.65625 C 295.738281 95.730469 295.453125 95.570312 295.375 95.292969 C 295.300781 95.019531 295.460938 94.730469 295.738281 94.65625 C 301.191406 93.136719 302.648438 86.207031 302.652344 86.191406 Z M 302.652344 86.191406 " fill-opacity="1" fill-rule="nonzero"/><path fill="#1a0800" d="M 300.386719 94.140625 C 300.226562 93.902344 300.292969 93.578125 300.53125 93.417969 C 300.769531 93.261719 301.09375 93.324219 301.25 93.566406 C 301.253906 93.566406 302.136719 94.894531 303.941406 94.894531 C 304.226562 94.894531 304.460938 95.128906 304.460938 95.414062 C 304.460938 95.703125 304.226562 95.9375 303.941406 95.9375 C 301.582031 95.9375 300.390625 94.148438 300.386719 94.140625 Z M 300.386719 94.140625 " fill-opacity="1" fill-rule="nonzero"/><path fill="#1a0800" d="M 196.089844 40.757812 C 195.828125 40.871094 195.523438 40.746094 195.410156 40.480469 C 195.296875 40.21875 195.417969 39.910156 195.683594 39.800781 C 195.703125 39.789062 203.351562 36.511719 206.714844 41.28125 C 206.882812 41.515625 206.824219 41.839844 206.589844 42.003906 C 206.355469 42.171875 206.03125 42.113281 205.867188 41.878906 C 202.988281 37.796875 196.109375 40.746094 196.089844 40.757812 Z M 196.089844 40.757812 " fill-opacity="1" fill-rule="nonzero"/><path fill="#1a0800" d="M 184.125 39.800781 C 184.390625 39.910156 184.511719 40.21875 184.398438 40.480469 C 184.289062 40.746094 183.980469 40.871094 183.71875 40.757812 C 183.699219 40.746094 176.820312 37.796875 173.941406 41.878906 C 173.777344 42.113281 173.453125 42.171875 173.21875 42.003906 C 172.984375 41.839844 172.925781 41.515625 173.09375 41.28125 C 176.457031 36.511719 184.105469 39.789062 184.125 39.800781 Z M 184.125 39.800781 " fill-opacity="1" fill-rule="nonzero"/><path fill="#1a0800" d="M 200.300781 43.445312 C 201.433594 43.445312 202.347656 44.59375 202.347656 46.007812 C 202.347656 47.421875 201.433594 48.570312 200.300781 48.570312 C 199.375 48.570312 198.59375 47.800781 198.339844 46.742188 L 200.300781 46.007812 L 198.328125 45.332031 C 198.5625 44.242188 199.359375 43.445312 200.300781 43.445312 Z M 200.300781 43.445312 " fill-opacity="1" fill-rule="evenodd"/><path fill="#ffffff" d="M 183.40625 63.945312 L 197.453125 64.207031 C 197.453125 64.207031 195.433594 69.40625 190.492188 69.40625 C 185.550781 69.40625 183.40625 63.945312 183.40625 63.945312 Z M 183.40625 63.945312 " fill-opacity="1" fill-rule="evenodd"/><path fill="#1a0800" d="M 183.445312 63.429688 L 197.460938 63.6875 C 197.746094 63.691406 197.976562 63.929688 197.972656 64.214844 C 197.972656 64.277344 197.957031 64.339844 197.9375 64.394531 C 197.929688 64.410156 195.789062 69.929688 190.492188 69.929688 C 185.199219 69.929688 182.929688 64.152344 182.925781 64.136719 C 182.820312 63.867188 182.953125 63.566406 183.21875 63.460938 C 183.292969 63.433594 183.371094 63.421875 183.445312 63.429688 Z M 196.640625 64.710938 L 184.234375 64.480469 C 184.984375 65.894531 186.984375 68.886719 190.492188 68.886719 C 193.996094 68.886719 195.925781 66.054688 196.640625 64.710938 Z M 196.640625 64.710938 " fill-opacity="1" fill-rule="nonzero"/><g clip-path="url(#137849e7a0)"><path fill="#1a0800" d="M 208.589844 86.386719 C 208.394531 86.175781 208.410156 85.847656 208.621094 85.652344 C 208.835938 85.460938 209.164062 85.476562 209.355469 85.6875 C 209.386719 85.722656 219.796875 96.917969 212.039062 109.234375 C 205.507812 119.605469 201.652344 123.027344 200.6875 123.792969 L 205.394531 224.816406 C 205.40625 225.105469 205.183594 225.347656 204.898438 225.359375 C 204.613281 225.371094 204.371094 225.148438 204.359375 224.863281 L 199.636719 123.59375 C 199.621094 123.410156 199.699219 123.21875 199.863281 123.109375 C 199.875 123.101562 203.675781 120.5625 211.160156 108.679688 C 218.492188 97.039062 208.617188 86.417969 208.589844 86.386719 Z M 208.589844 86.386719 " fill-opacity="1" fill-rule="nonzero"/></g><g clip-path="url(#a3c020dffc)"><path fill="#1a0800" d="M 159.796875 106.808594 C 159.648438 106.558594 159.730469 106.242188 159.976562 106.09375 C 160.226562 105.949219 160.542969 106.03125 160.6875 106.277344 C 160.710938 106.316406 168.789062 120.015625 177.230469 124.113281 C 177.402344 124.195312 177.507812 124.363281 177.523438 124.542969 L 185.058594 224.800781 C 185.082031 225.089844 184.867188 225.339844 184.582031 225.359375 C 184.292969 225.378906 184.046875 225.164062 184.023438 224.878906 L 176.507812 124.914062 C 167.882812 120.527344 159.820312 106.847656 159.796875 106.808594 Z M 159.796875 106.808594 " fill-opacity="1" fill-rule="nonzero"/></g><path fill="#1a0800" d="M 166.40625 57.40625 C 166.542969 57.15625 166.855469 57.0625 167.109375 57.199219 C 167.359375 57.335938 167.453125 57.652344 167.316406 57.902344 C 167.296875 57.9375 161.257812 69.25 153.558594 72.96875 C 153.300781 73.089844 152.992188 72.984375 152.867188 72.726562 C 152.742188 72.464844 152.851562 72.15625 153.109375 72.03125 C 160.5 68.460938 166.390625 57.4375 166.40625 57.40625 Z M 166.40625 57.40625 " fill-opacity="1" fill-rule="nonzero"/><path fill="#1a0800" d="M 163.496094 66.910156 C 163.5625 66.632812 163.839844 66.460938 164.121094 66.527344 C 164.398438 66.589844 164.570312 66.871094 164.503906 67.152344 C 164.488281 67.207031 159.75 87.515625 142 91.496094 C 141.722656 91.558594 141.445312 91.378906 141.382812 91.101562 C 141.324219 90.820312 141.5 90.542969 141.777344 90.484375 C 158.886719 86.648438 163.480469 66.96875 163.496094 66.910156 Z M 163.496094 66.910156 " fill-opacity="1" fill-rule="nonzero"/><path fill="#1a0800" d="M 165.835938 83.835938 C 165.902344 83.558594 166.183594 83.386719 166.460938 83.453125 C 166.738281 83.519531 166.910156 83.800781 166.84375 84.078125 C 166.835938 84.117188 163.683594 97.535156 153.65625 105.457031 C 144.496094 112.699219 145.179688 119.511719 145.925781 126.957031 L 146.046875 128.179688 C 146.257812 130.375 146.039062 132.625 145.601562 134.75 C 145.015625 137.617188 144.027344 140.253906 143.175781 142.199219 C 143.0625 142.460938 142.753906 142.582031 142.492188 142.46875 C 142.230469 142.351562 142.109375 142.046875 142.226562 141.785156 C 143.054688 139.886719 144.015625 137.320312 144.585938 134.542969 C 145.003906 132.507812 145.21875 130.359375 145.015625 128.277344 L 144.894531 127.058594 C 144.117188 119.320312 143.40625 112.238281 153.015625 104.644531 C 162.753906 96.945312 165.828125 83.875 165.835938 83.835938 Z M 165.835938 83.835938 " fill-opacity="1" fill-rule="nonzero"/><path fill="#1a0800" d="M 201.695312 11.269531 C 201.875 11.046875 202.203125 11.007812 202.425781 11.183594 C 202.652344 11.359375 202.691406 11.6875 202.515625 11.914062 C 202.507812 11.921875 200.253906 14.675781 198.976562 22.609375 C 198.929688 22.894531 198.664062 23.085938 198.382812 23.042969 C 198.101562 22.996094 197.90625 22.730469 197.953125 22.449219 C 199.277344 14.238281 201.691406 11.28125 201.695312 11.269531 Z M 201.695312 11.269531 " fill-opacity="1" fill-rule="nonzero"/><path fill="#1a0800" d="M 209.277344 31.484375 C 209.203125 31.207031 209.371094 30.925781 209.648438 30.851562 C 209.925781 30.777344 210.210938 30.945312 210.28125 31.222656 C 210.289062 31.246094 212.597656 39.988281 217.230469 46.683594 C 221.773438 53.257812 221.753906 60.503906 221.742188 65.285156 L 221.742188 65.988281 C 221.746094 70.550781 224.8125 76.914062 230.949219 82.800781 C 231.15625 83 231.160156 83.328125 230.960938 83.535156 C 230.765625 83.742188 230.433594 83.75 230.230469 83.550781 C 223.878906 77.457031 220.703125 70.800781 220.703125 65.988281 L 220.707031 65.285156 C 220.71875 60.632812 220.738281 53.582031 216.375 47.273438 C 211.640625 40.425781 209.285156 31.511719 209.277344 31.484375 Z M 209.277344 31.484375 " fill-opacity="1" fill-rule="nonzero"/><path fill="#1a0800" d="M 217.589844 63.820312 C 217.640625 63.535156 217.90625 63.34375 218.191406 63.394531 C 218.472656 63.441406 218.664062 63.710938 218.613281 63.992188 C 218.605469 64.054688 214.832031 85.578125 222.800781 90.546875 C 223.042969 90.699219 223.117188 91.019531 222.964844 91.261719 C 222.816406 91.507812 222.492188 91.582031 222.25 91.429688 C 213.683594 86.085938 217.578125 63.882812 217.589844 63.820312 Z M 217.589844 63.820312 " fill-opacity="1" fill-rule="nonzero"/><path fill="#1a0800" d="M 190.3125 47.359375 C 190.347656 47.074219 190.609375 46.871094 190.890625 46.90625 C 191.175781 46.941406 191.378906 47.199219 191.34375 47.484375 C 191.34375 47.496094 190.769531 51.53125 192.59375 54.441406 C 194.851562 58.042969 191.09375 59.535156 191.082031 59.539062 C 190.816406 59.644531 190.511719 59.515625 190.40625 59.25 C 190.300781 58.984375 190.429688 58.679688 190.695312 58.574219 C 190.703125 58.570312 193.308594 57.539062 191.714844 54.992188 C 189.683594 51.753906 190.3125 47.371094 190.3125 47.359375 Z M 190.3125 47.359375 " fill-opacity="1" fill-rule="nonzero"/><path fill="#1a0800" d="M 79 187.5 C 78.925781 187.222656 79.089844 186.9375 79.363281 186.863281 C 79.640625 186.789062 79.925781 186.953125 80 187.226562 C 80.003906 187.238281 80.917969 190.589844 82.253906 191.921875 C 82.632812 192.300781 83.125 192.730469 83.761719 193.125 C 84.398438 193.519531 85.1875 193.882812 86.175781 194.128906 C 86.453125 194.199219 86.621094 194.480469 86.550781 194.757812 C 86.484375 195.039062 86.199219 195.207031 85.921875 195.136719 C 84.828125 194.863281 83.9375 194.453125 83.214844 194.007812 C 82.496094 193.558594 81.945312 193.078125 81.519531 192.65625 C 79.992188 191.136719 79.003906 187.511719 79 187.5 Z M 79 187.5 " fill-opacity="1" fill-rule="nonzero"/><path fill="#1a0800" d="M 90.8125 192.855469 C 91.074219 192.96875 91.195312 193.277344 91.078125 193.539062 C 90.964844 193.804688 90.65625 193.921875 90.394531 193.808594 C 90.382812 193.800781 86.683594 192.222656 85.121094 190.238281 C 84.941406 190.011719 84.980469 189.683594 85.207031 189.507812 C 85.433594 189.328125 85.757812 189.367188 85.9375 189.59375 C 87.332031 191.367188 90.800781 192.851562 90.8125 192.855469 Z M 90.8125 192.855469 " fill-opacity="1" fill-rule="nonzero"/><path fill="#1a0800" d="M 97.535156 192.617188 C 97.257812 192.546875 97.09375 192.261719 97.164062 191.984375 C 97.238281 191.707031 97.523438 191.539062 97.800781 191.613281 C 97.804688 191.613281 100.097656 192.246094 100.691406 194.636719 C 100.761719 194.917969 100.589844 195.199219 100.3125 195.265625 C 100.03125 195.335938 99.753906 195.164062 99.683594 194.886719 C 99.238281 193.089844 97.539062 192.621094 97.535156 192.617188 Z M 97.535156 192.617188 " fill-opacity="1" fill-rule="nonzero"/><path fill="#4d5b82" d="M 177.003906 124.582031 L 184.542969 224.839844 L 204.875 224.839844 L 200.15625 123.539062 C 200.15625 123.539062 204.058594 120.9375 211.601562 108.957031 C 219.144531 96.980469 208.972656 86.039062 208.972656 86.039062 C 208.972656 86.039062 211.859375 98.539062 189.75 100.625 C 189.75 100.625 179.113281 101.011719 168.4375 98.996094 C 165.898438 102.359375 162.921875 104.53125 160.242188 106.542969 C 160.242188 106.542969 168.421875 120.414062 177.003906 124.582031 Z M 177.003906 124.582031 " fill-opacity="1" fill-rule="evenodd"/><g clip-path="url(#f2fe50ba2c)"><path fill="#1a0800" d="M 177.523438 124.542969 L 185.023438 224.320312 L 204.332031 224.320312 L 199.636719 123.5625 C 199.628906 123.375 199.71875 123.207031 199.867188 123.109375 C 199.875 123.101562 203.675781 120.5625 211.160156 108.679688 C 216.988281 99.425781 211.941406 90.816406 209.613281 87.660156 C 209.539062 91.285156 207.386719 99.484375 189.796875 101.140625 L 189.765625 101.140625 C 189.734375 101.144531 179.28125 101.523438 168.65625 99.5625 C 166.242188 102.683594 163.46875 104.773438 160.929688 106.675781 C 162.328125 108.953125 169.632812 120.425781 177.230469 124.113281 C 177.402344 124.195312 177.507812 124.363281 177.523438 124.542969 Z M 184.023438 224.878906 L 176.507812 124.914062 C 167.882812 120.527344 159.820312 106.847656 159.796875 106.808594 C 159.664062 106.582031 159.71875 106.289062 159.929688 106.128906 L 160.234375 105.902344 C 162.804688 103.976562 165.621094 101.863281 168.019531 98.679688 C 168.136719 98.527344 168.332031 98.445312 168.53125 98.484375 C 178.933594 100.449219 189.265625 100.121094 189.71875 100.105469 C 211.222656 98.074219 208.472656 86.179688 208.464844 86.148438 C 208.425781 85.972656 208.480469 85.78125 208.621094 85.652344 C 208.835938 85.460938 209.164062 85.476562 209.355469 85.6875 C 209.386719 85.722656 219.796875 96.917969 212.039062 109.234375 C 205.507812 119.605469 201.652344 123.027344 200.6875 123.792969 L 205.398438 224.839844 C 205.398438 225.128906 205.164062 225.363281 204.875 225.363281 L 184.542969 225.363281 C 184.273438 225.359375 184.042969 225.152344 184.023438 224.878906 Z M 184.023438 224.878906 " fill-opacity="1" fill-rule="nonzero"/></g><path fill="#1a0800" d="M 180.035156 43.449219 C 181.164062 43.449219 182.078125 44.59375 182.078125 46.007812 C 182.078125 47.421875 181.164062 48.566406 180.035156 48.566406 C 179.109375 48.566406 178.328125 47.796875 178.078125 46.742188 L 180.035156 46.007812 L 178.0625 45.332031 C 178.300781 44.246094 179.09375 43.449219 180.035156 43.449219 Z M 180.035156 43.449219 " fill-opacity="1" fill-rule="evenodd"/><path fill="#1a0800" d="M 306.421875 115.3125 C 306.363281 114.960938 306.601562 114.625 306.953125 114.566406 C 307.308594 114.507812 307.640625 114.746094 307.703125 115.101562 L 308.722656 121.25 C 308.785156 121.601562 308.542969 121.9375 308.191406 121.996094 C 307.839844 122.054688 307.503906 121.816406 307.445312 121.460938 Z M 306.421875 115.3125 " fill-opacity="1" fill-rule="nonzero"/><path fill="#1a0800" d="M 206.882812 116.617188 L 213.347656 224.808594 L 212.308594 224.871094 L 205.847656 116.675781 Z M 206.882812 116.617188 " fill-opacity="1" fill-rule="nonzero"/><path fill="#1a0800" d="M 111.0625 187.371094 L 117.433594 187.140625 L 134.5625 189.464844 L 111.472656 189.351562 Z M 111.0625 187.371094 " fill-opacity="1" fill-rule="evenodd"/><path fill="#000000" d="M 111.066406 187.113281 L 117.425781 186.882812 L 117.46875 186.882812 L 134.597656 189.207031 C 134.738281 189.226562 134.839844 189.355469 134.820312 189.5 C 134.800781 189.636719 134.679688 189.730469 134.546875 189.722656 L 111.472656 189.613281 C 111.347656 189.609375 111.246094 189.523438 111.21875 189.40625 L 110.808594 187.425781 C 110.777344 187.285156 110.867188 187.148438 111.007812 187.117188 Z M 117.417969 187.402344 L 111.378906 187.621094 L 111.6875 189.09375 L 130.578125 189.1875 Z M 117.417969 187.402344 " fill-opacity="1" fill-rule="nonzero"/></svg>